<mxfile host="app.diagrams.net" agent="Mozilla/5.0 (Windows NT 10.0; Win64; x64) AppleWebKit/537.36 (KHTML, like Gecko) Chrome/129.0.0.0 Safari/537.36" version="24.7.17">
  <diagram id="C5RBs43oDa-KdzZeNtuy" name="Page-1">
    <mxGraphModel dx="1434" dy="780" grid="1" gridSize="10" guides="1" tooltips="1" connect="1" arrows="1" fold="1" page="1" pageScale="1" pageWidth="827" pageHeight="1169" math="0" shadow="0">
      <root>
        <mxCell id="WIyWlLk6GJQsqaUBKTNV-0" />
        <mxCell id="WIyWlLk6GJQsqaUBKTNV-1" parent="WIyWlLk6GJQsqaUBKTNV-0" />
        <mxCell id="zSo5ncNvcmj5FQpwvlpM-0" style="edgeStyle=orthogonalEdgeStyle;rounded=0;orthogonalLoop=1;jettySize=auto;html=1;fontStyle=1;fontSize=16;" edge="1" parent="WIyWlLk6GJQsqaUBKTNV-1" source="zSo5ncNvcmj5FQpwvlpM-1" target="zSo5ncNvcmj5FQpwvlpM-3">
          <mxGeometry relative="1" as="geometry" />
        </mxCell>
        <mxCell id="zSo5ncNvcmj5FQpwvlpM-1" value="start" style="rounded=1;whiteSpace=wrap;html=1;fontStyle=1;fontSize=16;" vertex="1" parent="WIyWlLk6GJQsqaUBKTNV-1">
          <mxGeometry x="354" y="130" width="120" height="60" as="geometry" />
        </mxCell>
        <mxCell id="zSo5ncNvcmj5FQpwvlpM-2" style="edgeStyle=orthogonalEdgeStyle;rounded=0;orthogonalLoop=1;jettySize=auto;html=1;fontStyle=1;fontSize=16;" edge="1" parent="WIyWlLk6GJQsqaUBKTNV-1" source="zSo5ncNvcmj5FQpwvlpM-3">
          <mxGeometry relative="1" as="geometry">
            <mxPoint x="414" y="330" as="targetPoint" />
          </mxGeometry>
        </mxCell>
        <mxCell id="zSo5ncNvcmj5FQpwvlpM-3" value="int a = 4&amp;nbsp;&lt;div&gt;&amp;nbsp;int b = 5&lt;/div&gt;" style="shape=parallelogram;perimeter=parallelogramPerimeter;whiteSpace=wrap;html=1;fixedSize=1;fontStyle=1;fontSize=16;" vertex="1" parent="WIyWlLk6GJQsqaUBKTNV-1">
          <mxGeometry x="354" y="230" width="120" height="60" as="geometry" />
        </mxCell>
        <mxCell id="zSo5ncNvcmj5FQpwvlpM-11" style="edgeStyle=orthogonalEdgeStyle;rounded=0;orthogonalLoop=1;jettySize=auto;html=1;" edge="1" parent="WIyWlLk6GJQsqaUBKTNV-1" source="zSo5ncNvcmj5FQpwvlpM-10" target="zSo5ncNvcmj5FQpwvlpM-12">
          <mxGeometry relative="1" as="geometry">
            <mxPoint x="414" y="470" as="targetPoint" />
          </mxGeometry>
        </mxCell>
        <mxCell id="zSo5ncNvcmj5FQpwvlpM-10" value="int sahe = a * b&lt;div&gt;&amp;nbsp;int perimeter = 2 *(a +&amp;nbsp; b )&lt;/div&gt;" style="rounded=0;whiteSpace=wrap;html=1;" vertex="1" parent="WIyWlLk6GJQsqaUBKTNV-1">
          <mxGeometry x="354" y="330" width="120" height="60" as="geometry" />
        </mxCell>
        <mxCell id="zSo5ncNvcmj5FQpwvlpM-13" style="edgeStyle=orthogonalEdgeStyle;rounded=0;orthogonalLoop=1;jettySize=auto;html=1;" edge="1" parent="WIyWlLk6GJQsqaUBKTNV-1" source="zSo5ncNvcmj5FQpwvlpM-12" target="zSo5ncNvcmj5FQpwvlpM-14">
          <mxGeometry relative="1" as="geometry">
            <mxPoint x="414" y="590" as="targetPoint" />
          </mxGeometry>
        </mxCell>
        <mxCell id="zSo5ncNvcmj5FQpwvlpM-12" value="sahe&amp;nbsp;&lt;br&gt;perimeter" style="shape=document;whiteSpace=wrap;html=1;boundedLbl=1;" vertex="1" parent="WIyWlLk6GJQsqaUBKTNV-1">
          <mxGeometry x="354" y="440" width="120" height="80" as="geometry" />
        </mxCell>
        <mxCell id="zSo5ncNvcmj5FQpwvlpM-14" value="finish&lt;div&gt;&lt;br&gt;&lt;/div&gt;" style="ellipse;whiteSpace=wrap;html=1;" vertex="1" parent="WIyWlLk6GJQsqaUBKTNV-1">
          <mxGeometry x="354" y="570" width="120" height="80" as="geometry" />
        </mxCell>
      </root>
    </mxGraphModel>
  </diagram>
</mxfile>
